<?xml version="1.0" encoding="utf-8"?>
<!-- Generator: Adobe Illustrator 16.0.0, SVG Export Plug-In . SVG Version: 6.00 Build 0)  -->
<!DOCTYPE svg PUBLIC "-//W3C//DTD SVG 1.1//EN" "http://www.w3.org/Graphics/SVG/1.1/DTD/svg11.dtd">
<svg version="1.1" xmlns="http://www.w3.org/2000/svg" xmlns:xlink="http://www.w3.org/1999/xlink" x="0px" y="0px"
	 width="1453.074px" height="964.326px" viewBox="0 0 1453.074 964.326" style="enable-background:new 0 0 1453.074 964.326;"
	 xml:space="preserve">
<g id="AfriqueOuest">
	<g id="GN">
		<path style="fill:#FFFFFF;stroke:#000000;stroke-miterlimit:10;" d="M175.151,542.996l-3.341,35.842h-19.44l-9.72,6.379
			L130.5,596.15l-6.075,8.506v4.252l5.771,1.52l3.038-4.557l2.43,0.305l0.681,6.736l4.933,0.658l0.219,7.893l2.74,7.344
			c0,0,2.851,4.385,3.398,4.385s3.946,2.303,3.946,2.303l2.74,1.096c0,0,6.796,6.357,7.235,6.688
			c0.438,0.328,6.358,7.563,6.358,7.563l9.976,19.514c0,0,7.454,0.547,7.783,0.766c0.329,0.221,5.372-1.533,5.372-1.863
			c0-0.328,6.687-5.15,6.687-5.48c0-0.328,6.248-7.125,6.577-7.125s4.714-6.688,4.714-6.688v-2.85l1.863-1.973
			c0,0,4.275-2.193,4.823-2.303s7.564-1.535,7.564-1.535l22.362,0.111l13.044,12.277c0,0,6.687,9.426,6.687,9.756
			c0,0.328,3.289,9.316,3.289,9.316l0.986,13.703c0,0-4.166,13.375-2.631,12.826s16.991-6.688,17.43-6.797
			s13.374,1.314,13.374,1.314l4.604,4.934l5.371,11.949l1.645,9.316l-1.754,8.002l-1.754,4.385l3.508,2.193l7.016,3.836l3.836,0.658
			l3.508-1.426l8.112-8.549v-2.631l2.412-0.988l2.741,0.439l1.973,1.205l9.866-0.547c0,0,8.002-17.648,7.454-17.648
			s-8.989-4.275-8.989-4.275s1.096-8.33,1.535-8.441c0.438-0.109,17.648,3.07,17.648,3.07v-1.865l-6.029-12.496l0.219-1.645
			l3.398-4.055l0.987-1.863l-0.987-2.412l-2.521-2.193l0.548-8.111l-4.275-0.549l-2.521-1.973l-1.754-2.74l-1.096-3.18l0.438-4.932
			l1.864-5.811l2.521-5.152l2.85-5.041l-10.085-9.758l-1.206-20.607l-8.55,6.029l-2.96-4.934l11.51-10.523l-14.908-11.4
			l-0.11-10.742l-4.385-17.15l-10.085-2.691l-0.986,4.385l-2.083,2.852c0,0-2.521,2.41-2.85,2.41s-2.631-0.438-2.631-0.438
			l-2.74,1.096l-2.192,2.85l-0.548,3.947l-18.745-7.564l-14.908,10.742l-0.548-3.068l-6.577-8.111l-9.317,5.918l-4.056,0.111
			l-1.973-1.316l-0.767-2.74l0.767-2.85l2.96-4.385c0,0-13.593-0.646-13.703-1.146c-0.109-0.498-16.991-1.814-16.991-1.814
			l-12.387-2.082l-14.141-3.836l-9.866-4.385l-3.179-1.426L175.151,542.996z"/>
	</g>
	<g id="MR">
		<path style="fill:#FFFFFF;stroke:#000000;stroke-miterlimit:10;" d="M103.063,242.203l6.176,16.844l5.663,1.637l3.025,9.329
			v11.093l-1.513,8.068l-10.337,14.119l9.077,14.875l-1.513,47.652l-14.123,38.496l20.426,1.087l25.464-3.025l19.162,2.017
			c0,0,7.377,9.617,8.068,10.085s10.085,5.799,10.085,5.799l11.85,1.513l6.303,10.588l6.777,13.551l23.982,28.049l2.773-1.26
			l10.337-10.59c0,0,9.077-15.127,9.077-15.883s3.529-9.833,3.529-9.833l10.085,2.773l5.608,18.658l10.275,3.529l17.901-11.85
			l149.006,7.817l8.572-28.239l-12.104-4.286l-3.277-294.477l50.93-2.269L391.985,49.662l-5.293,40.592l-101.606-9.581
			l-12.041,90.009l-11.155,0.504l-12.858,3.529L240.964,179l-5.295,6.808c0,0-4.286,8.32-4.286,9.076
			c0,0.757-0.756,47.652-0.756,47.652l-119.254-7.564L103.063,242.203z"/>
	</g>
	<g id="ML">
		<path style="fill:#FFFFFF;stroke:#000000;stroke-miterlimit:10;" d="M495.358,128.826l-50.93,1.766l2.268,294.224l12.607,4.287
			l-9.076,28.238l-149.762-7.817l-17.145,11.85l-10.84-3.531l-5.043-18.656l-8.571-3.278l-7.06,13.362l-8.32,13.615l-5.042,7.059
			l-5.546,3.025l-1.552,11.537l4.253,12.15l0.072,11.107l-2.502,4.688l16.874,16.238l3.782,10.084c0,0-0.195,14.352-1.009,15.885
			c-0.814,1.531-4.538,7.816-4.538,7.816l0.977,4.836l4.569,1.246l11.346-5.578l5.799,7.059l-0.252,3.025l15.884-10.588
			l18.779,8.125l0.548-3.947l2.859-3.926l4.538-0.506l3.016-1.486l3.035-7.842l10.119,3.297l4.385,17.15l-0.386,11.57l15.404,10.572
			l-11.51,10.523l2.96,4.934l8.55-6.029c0,0,1.267,18.559,1.236,19.584c-0.031,1.023,10.054,10.781,10.054,10.781l9.36-6.748
			l6.051-1.514l4.538,2.521l3.278,5.74l3.025,3.59h3.277l4.285-5.295l4.035-2.27l5.799-0.756l0.252-1.766l-2.27-5.799l2.018-1.512
			l2.521-0.506l7.311-2.016l5.043,0.252l2.773,2.521l-2.018,13.613l2.018,1.766l7.563-6.051l10.842-1.262l8.572,0.758l5.043,1.764
			l0.504-6.303l2.018-11.598l1.764-14.875l6.305-10.59l10.336-9.58c0,0,9.834-6.807,11.094-7.816
			c1.26-1.008,16.893-35.045,16.893-35.045l32.777-8.822c0,0,18.656-5.547,18.656-6.303c0-0.758,16.389-15.633,16.389-15.633
			s28.994-17.145,30.253-17.145c1.262,0,33.029-8.572,33.029-8.572l26.725,1.262l15.381-13.363l69.838,1.514l2.27-4.791l6.051-4.285
			l4.789-1.514v-4.791l3.277-4.538l4.791-2.27l4.035-0.252l3.781-104.127l-26.979,3.53l-5.799-4.79l1.514-9.076l2.27-6.557
			l-2.52-8.068l-6.809-8.067l-10.084-2.773l-5.043,0.757l-5.547-6.052l-8.068-0.757l-8.824-7.563l-2.521-6.556l-12.605-7.563
			l-4.035-4.034v-4.538L495.358,128.826z"/>
	</g>
	<g id="BF">
		<path style="fill:#FFFFFF;stroke:#000000;stroke-miterlimit:10;" d="M453.504,632.309l7.568,13.615l16.389,11.346l17.9-8.824
			l16.389-0.756l11.092,2.773l5.799,8.572l5.547,5.547h2.27l-5.043-49.67l68.074,1.01l9.833-4.035l12.354-1.764l32.775,5.295
			l20.422-15.633c0,0,19.414,2.018,20.17,1.766c0.758-0.252,15.129-26.725,15.129-26.725l-7.816-1.262l-1.262-8.068l-4.285-6.555
			l-2.27-1.008h-4.285l-2.773,4.537l-12.859-4.537l-33.279-44.879l-0.758-12.857l-4.789-5.295l-0.504-4.539l-1.262-10.084h-10.084
			l-52.695,24.959l-2.521,2.521l-12.605,11.598l-17.9,7.816l-17.145,3.277l-18.178,4.539l-16.867,36.305l-9.834,5.547l-6.555,5.799
			l-7.061,8.572l-5.799,16.137l-1.26,11.85L453.504,632.309z"/>
	</g>
	<g id="CI">
		<path style="fill:#FFFFFF;stroke:#000000;stroke-miterlimit:10;" d="M366.545,838.543c3.512,0,14.352,1.764,14.352,1.764
			s99.086-30.002,100.094-30.002s36.307,5.295,36.307,5.295l5.293-22.188v-7.564l-6.303-18.152l0.504-13.615l10.842-13.109v-13.867
			l5.799-12.354l8.32-7.313l-5.799-43.617h-2.527l-9.322-12.102l-10.59-5.295h-13.109l-12.102,4.537l-10.842,6.309l-17.396-10.846
			l-6.561-13.363l-7.307-3.781h-10.842l-9.832,3.529l-4.039,4.291l-2.018-1.766l1.014-13.619l-1.77-2.516l-7.055,1.256l-7.059,0.504
			l-3.027,1.26l2.773,5.801l-0.756,1.764l-4.791,1.262l-6.051,4.033l-5.799,2.773l-2.521-1.514l-5.545-8.318l-4.539-0.506
			l-9.581,3.025l-5.547,4.791l-4.286,9.076l-3.025,10.338l3.461,7.387l3.094,1.689l4.791,0.762l-1.765,7.055l5.061,4.537
			l-2.036,1.262l-2.521,3.529l-1.26,3.025l0.252,3.025l5.042,8.32v3.781l-17.145-3.529l-1.516,9.076l8.827,4.791l-7.292,17.133
			l-8.843,0.012v9.58l3.025,2.904l1.008,4.408l-0.504,6.807l-3.53,7.816l-5.295,4.285l12.102,8.068l4.286,0.756l5.547,2.27
			l3.53,5.547l1.513,5.547l7.563,5.547l5.043,6.303l-0.504,8.572l-7.293,8.824V838.543z"/>
	</g>
	<g id="TG">
		<path style="fill:#FFFFFF;stroke:#000000;stroke-miterlimit:10;" d="M530.664,614.724c1.711,0.025,68.074,1.01,68.074,1.01
			l9.834-4.035l12.354-1.764l3.094,0.5l29.682,4.795l-3.529,18.904l15.127,13.615l3.277,5.041l1.262,11.604
			c0,0,15.127,113.703,14.371,113.703c-0.758,0-24.205,6.807-24.205,6.807l-12.102-20.422c0,0-3.783-57.988-3.277-59.248
			c0.504-1.262-3.277-29.5-3.277-29.5l-4.531-34.868l-9.04-7.054l-2.565-3.207l-0.471-1.344l-0.721-2.059l-0.215-2.705l-0.438-5.486
			l0.153-2.014l0.499-6.563"/>
	</g>
	<g id="BJ">
		<path style="fill:#FFFFFF;stroke:#000000;stroke-miterlimit:10;" d="M652.854,615.242c1.822-2.734,21.264-16.402,21.264-16.402
			l18.527,1.822l17.527-25.836l31.68,6.396l1.52,27.943l5.164,7.594v10.328l-1.822,6.074c0,0-3.342,2.432-3.342,3.342
			c0,0.912-0.303,17.01-0.303,17.01l-2.127,4.252l-7.898,3.342l-5.467,18.529l-3.949,10.326l-6.379,9.113l-1.518,75.33
			l-32.197,3.947l-16.402-123.32l-1.822-6.684l-6.684-5.467l-9.719-7.898L652.854,615.242z"/>
	</g>
	<g id="NE">
		<path style="fill:#FFFFFF;stroke:#000000;stroke-miterlimit:10;" d="M632.334,480.439v8.58l2.6,6.5l3.381,4.16l1.559,10.658v2.602
			l32.76,44.977l12.354,3.676l4.545-3.414l3.641-0.262l3.639,2.602l1.91,5.979c0,0,3.289,7.279,2.51,7.279s40.818,6.76,40.818,6.76
			l2.34-5.709v-3.91c0,0,4.65-4.42,4.146-5.199c-0.506-0.779,5.734-4.68,5.734-4.68l5.459-4.42l1.561-9.359l3.119-13.26
			c0,0,9.441-4.16,10.051-4.939c0.609-0.781,13.09-4.42,13.09-4.42s21.318-0.781,22.098-0.781c0.781,0,8.32,0.521,8.32,0.521
			l18.199,10.139l9.619,5.459l10.141,10.92h10.398l10.141-9.359l10.139-1.82l9.621,2.602c0,0,9.359,7.02,10.139,7.02
			s8.061,7.279,8.061,7.279l29.119,1.82c0,0,22.357-19.238,26.516-19.238c4.16,0,47.318-0.779,47.318-0.779s10.66,6.76,11.439,6.76
			s8.061,0,8.061,0l5.719-2.34l15.859-12.352l17.68-10.008l-2.34-4.16l-2.08-9.879l1.039-8.58c0,0,1.822-3.119,3.381-3.119
			c1.561,0,5.199-3.381,5.199-3.381v-5.719l2.08-3.9l54.334-61.615l11.695-98.534l8.32-21.579l-3.643-1.555l-5.199-2.34l-6.24-2.86
			l-4.16-3.38l-5.199-5.46l-2.6-5.72l-2.34-6.239l-1.301-8.06l-0.26-13.52l-0.52-35.879l-10.139,1.56l-3.9-5.199l-7.279-5.98
			l-6.5-4.159l-77.738-3.38l-199.67,131.035l-48.357,13l-3.641,105.038c0,0-0.971-0.11-2.436,0.335s-6.145,2.265-6.145,2.265
			l-2.34,2.601l-0.779,5.199l-4.42,1.82l-3.119,2.08l-2.861,3.379l-2.6,4.42l-70.455,0.004l-14.039,11.26L632.334,480.439z"/>
	</g>
	<g id="SN">
		<path style="fill:#FFFFFF;stroke:#000000;stroke-miterlimit:10;" d="M99.518,405.139l20.426,0.264l25.464-3.025l19.162,2.017
			l7.174,9.108l10.979,6.775l11.85,1.513l13.08,24.139l23.982,28.049l-0.291,10.527l3.716,10.618l0.587,9.365v4.632l-2.481,3.33
			l17.297,17.367l3.329,10.583l-0.979,14.257l-1.496,2.633c0,0-14.708-1.605-13.758-1.354s-11.449-1.185-11.449-1.185l-12.919-1.777
			l-12.906-3.082l-17.054-7.247l-57.06-1.374l-4.055,1.374l-7.531,3.26l-6.662,1.448l-8.407,0.869l-5.206-1.738l-3.765,1.159
			l-5.793,1.448L71.43,550.83v-6.082v-8.979v-9.848l2.027-2.606l31.282-0.579l4.634-6.373h9.269l6.952-2.027l6.083-2.606
			l5.213,2.317l9.848,4.055l11.875,4.635l15.641-5.793l-4.344-5.504l-21.434-1.448l-4.634-3.765l-5.793-2.607l-4.055-1.448
			l-8.11-1.158l-4.345,2.027l-5.503,4.635H78.961l-1.448-10.428L71.43,485.66l-7.241-11.682l-5.214-6.565
			c0,0,4.056-6.662,4.924-6.662s7.53-6.373,8.399-6.662s8.979-9.848,8.979-9.848l6.083-10.427l1.738-9.848l1.738-7.241
			L99.518,405.139z"/>
	</g>
	<g id="GM">
		<path style="fill:#FFFFFF;stroke:#000000;stroke-miterlimit:10;" d="M80.12,507.674c0,0-8.7,15.679-6.662,15.641
			s31.282-0.579,31.282-0.579l4.634-6.373l10.717-0.868l10.467-3.286c0,0,10.178,3.422,11.417,3.932s8.829,3.549,9.374,3.761
			s8.378,2.423,8.378,2.423l14.527-5.381l-4.344-5.504l-21.434-1.448l-8.019-5.288l-6.463-2.532l-5.515-0.787l-6.94,1.656
			l-4.254,3.583l-1.249,1.052H80.12z"/>
	</g>
	<g id="GH">
		<path style="fill:#FFFFFF;stroke:#000000;stroke-miterlimit:10;" d="M531.415,613.984c0,0,66.548,2.563,68.074,1.938
			s9.833-4.035,9.833-4.035l12.354-1.764l3.094,0.5l-1.567,5.397l1.158,6.232l0.409,5.138l1.919,4.312l1.838,2.298l5.104,4.865
			l3.186,2l3.425,29.318l4.229,24.564l0.947,14.834l3.236,55.088l12.102,20.422l-2.505,4.418l-1.737,3.476h-2.607h-2.606h-2.392
			h-10.932l-14.482,4.924l-15.292,5.214c0,0-27.865,14.771-28.734,14.192s-22.882,11.007-22.882,11.007l-38.979-14.012l4.985-22.194
			v-6.269l-6.303-18.152l1.877-15.275l9.469-11.449v-13.867l5.799-12.354l8.32-7.313L531.415,613.984z"/>
	</g>
	<g id="NG">
		<path style="fill:#FFFFFF;stroke:#000000;stroke-miterlimit:10;" d="M715.73,774.406l1.518-75.33l6.379-9.113l9.416-28.855
			l7.898-3.342l2.127-4.252l0.303-17.01l3.342-3.342l1.822-6.074V616.76l-5.164-7.594l-1.322-28.631l1.577-3.848l0.763-5.771
			l3.262-3.464c0,0,1.77-3.471,0.885-1.735s11.193-9.1,11.193-9.1l4.68-22.619l23.141-9.359l25.068-0.616l5.35,0.356l27.818,15.598
			l10.141,10.92h10.398l10.141-9.359l10.139-1.82l9.621,2.602l12.155,8.532l6.044,5.767l29.119,1.82l24.418-18.531l49.416-1.486
			l11.439,6.76l9.642-0.646l4.138-1.693l15.859-12.352l17.68-10.008l20.214,21.561l3.127,25.411l7.595,9.883
			c0,0,2.681,17.869,0,18.763s-14.296,13.837-14.296,13.837l-10.722,0.188c0,0-7.148,11.886-8.488,12.779
			s-13.402,35.784-13.402,35.784l-8.488,32.568c0,0-17.87,10.773-17.87,12.088s-25.911,66.093-25.911,66.093l-15.636,2.234
			l-15.189-12.509l-33.953-0.894v8.935l-15.189,13.85l-9.382,14.742l-13.402,32.528l-7.595,1.871l-2.497,7.595
			c0,0-22.967,1.34-23.414,0s-11.615-3.573-11.615-3.573l-16.53,8.935c0,0-18.763-1.218-20.55-2.843s-12.063-9.666-12.063-9.666
			l-6.255-12.509l-6.254-15.189l-9.382-12.956l-9.828-9.382l-12.063-5.808L715.73,774.406z"/>
	</g>
</g>
<g id="AfriqueOuestCenter">
	<g id="BF_1_">
		<circle style="fill:#FFC0C0;" cx="566.841" cy="562.371" r="5.081"/>
	</g>
	<g id="BJ_1_">
		<circle style="fill:#FFC0C0;" cx="697.096" cy="658.687" r="5.896"/>
	</g>
	<g id="TG_1_">
		<circle style="fill:#FFC0C0;" cx="657.83" cy="703.343" r="5.924"/>
	</g>
	<g id="GH_1_">
		<circle style="fill:#FFC0C0;" cx="594.26" cy="714.051" r="5.74"/>
	</g>
	<g id="CI_1_">
		<circle style="fill:#FFC0C0;" cx="428.541" cy="734.418" r="4.666"/>
	</g>
	<g id="GN_1_">
		<circle style="fill:#FFC0C0;" cx="249.639" cy="604.508" r="4.154"/>
	</g>
	<g id="ML_1_">
		<circle style="fill:#FFC0C0;" cx="561.761" cy="388.44" r="5.251"/>
	</g>
	<g id="MR_1_">
		<circle style="fill:#FFC0C0;" cx="295.354" cy="291.902" r="5.141"/>
	</g>
	<g id="GM_1_">
		<circle style="fill:#F2B8B8;" cx="120.09" cy="509.767" r="5.727"/>
	</g>
	<g id="SN_1_">
		<circle style="fill:#F2B8B8;" cx="143.185" cy="461.551" r="6.169"/>
	</g>
	<g id="NE_1_">
		<circle style="fill:#FFC0C0;" cx="907.116" cy="399.86" r="6.169"/>
	</g>
	<g id="NG_1_">
		<circle style="fill:#FFCACD;" cx="885.26" cy="662.484" r="3.797"/>
	</g>
</g>
</svg>
