<?xml version="1.0" encoding="utf-8"?>
<!-- Generator: Adobe Illustrator 16.0.0, SVG Export Plug-In . SVG Version: 6.00 Build 0)  -->
<!DOCTYPE svg PUBLIC "-//W3C//DTD SVG 1.1//EN" "http://www.w3.org/Graphics/SVG/1.1/DTD/svg11.dtd">
<svg version="1.1" xmlns="http://www.w3.org/2000/svg" xmlns:xlink="http://www.w3.org/1999/xlink" x="0px" y="0px" width="512px"
	 height="512px" viewBox="0 0 512 512" enable-background="new 0 0 512 512" xml:space="preserve">
<g id="Layer_2">
	<circle fill="#595959" cx="255.5" cy="254.5" r="234.5"/>
</g>
<g id="Shape_1_1_" enable-background="new    ">
	<g id="Shape_1">
		<g>
			<path fill-rule="evenodd" clip-rule="evenodd" fill="#FFFFFF" d="M398.729,105c-14.762,0-33.524,9.481-39.08,12.466
				l-80.065-12.253c-11.25,0-38.402,0.728-47.207,7.212l-50.166,31.141c-2.383,1.479-3.487,4.353-2.722,7.049
				c0.778,2.696,3.236,4.552,6.032,4.552h56.438c0.502,0,0.991-0.063,1.479-0.15l8.403-2.069c5.431-0.79,10.849,0.828,14.975,4.402
				c4.139,3.574,6.497,8.754,6.497,14.223c0,4.352-1.354,8.503-3.926,12.027l-19.728,27.103c-5.506,8.252-4.415,19.339,2.608,26.362
				c4.076,4.063,9.418,6.107,14.774,6.107c5.355,0,10.697-2.044,14.774-6.12l31.793-31.793c11.877-0.665,22.737-5.794,30.789-14.072
				c11.137,10.322,46.78,13.596,53.842,14.135c0.162,0.013,0.326,0.013,0.488,0.013c1.568,0,3.098-0.59,4.252-1.668
				c1.292-1.191,2.02-2.859,2.02-4.603v-87.791C404.999,107.81,402.189,105,398.729,105z M348.587,146.914l-7.236,27.454
				c-5.944,11.375-17.545,18.424-30.413,18.424c-1.668,0-3.261,0.652-4.439,1.831l-33.562,33.562c-3.148,3.148-8.653,3.148-11.802,0
				c-2.81-2.796-3.248-7.236-1.191-10.321l19.59-26.89c4.139-5.682,6.321-12.404,6.321-19.427c0-9.093-3.938-17.733-10.811-23.691
				c-5.682-4.917-12.868-7.601-20.594-7.601c-1.63,0-3.299,0.126-4.967,0.364l-8.266,2.006h-33.712l31.894-19.816
				c3.926-2.885,21.195-5.054,39.23-5.129l74.385,11.45C351.798,133.482,350.218,139.627,348.587,146.914z M392.458,192.165
				c-13.558-1.53-30.213-4.653-37.312-8.604c1.254-12.19,3.461-24.004,5.644-33.762l5.744-21.797
				c5.794-3.048,16.593-8.002,25.924-9.795V192.165z M342.191,335.992l-12.542-75.25c-0.501-3.022-3.11-5.242-6.183-5.242h-31.342
				c0-3.462-2.81-6.271-6.271-6.271c-3.461,0-6.271,2.81-6.271,6.271v6.208c0,0.025-0.013,0.038-0.013,0.063
				c0,0.024,0.013,0.037,0.013,0.063v31.291H166.708V180.25H254.5c3.461,0,6.271-2.81,6.271-6.271c0-3.461-2.81-6.271-6.271-6.271
				h-94.063c-3.462,0-6.271,2.81-6.271,6.271V255.5h-31.354c-3.06,0-5.682,2.22-6.183,5.242l-12.542,75.25
				c-0.025,0.163,0.038,0.313,0.025,0.464c-0.013,0.201-0.113,0.364-0.113,0.565v62.708c0,3.461,2.81,6.271,6.271,6.271h225.749
				c3.462,0,6.271-2.81,6.271-6.271v-62.707c0-0.214-0.101-0.402-0.126-0.603C342.153,336.269,342.216,336.13,342.191,335.992z
				 M128.117,268.041h26.049v25.084h-6.271c-3.461,0-6.271,2.81-6.271,6.271c0,3.461,2.81,6.271,6.271,6.271h150.5
				c3.462,0,6.271-2.81,6.271-6.271c0-3.462-2.81-6.271-6.271-6.271h-6.271v-25.084h26.036l10.447,62.709H117.67L128.117,268.041z
				 M329.75,393.459H116.541v-50.167H329.75V393.459z"/>
		</g>
	</g>
</g>
</svg>
